<svg width="40" height="40" viewBox="0 0 40 40" fill="none" xmlns="http://www.w3.org/2000/svg">
<g id="Frame 218">
<circle id="Ellipse 74" cx="20" cy="20" r="20" fill="white"/>
<path id="Vector" d="M24.5815 12C23.6435 12.0141 22.726 12.2674 21.9215 12.7343C21.1171 13.2013 20.4543 13.8653 20 14.6593C19.5457 13.8653 18.8829 13.2013 18.0785 12.7343C17.2741 12.2674 16.3565 12.0141 15.4185 12C13.9232 12.0628 12.5144 12.6956 11.4999 13.7601C10.4854 14.8246 9.9476 16.2343 10.004 17.6812C10.004 21.3453 13.9908 25.3471 17.3344 28.0604C18.081 28.6673 19.0249 29 20 29C20.9751 29 21.919 28.6673 22.6656 28.0604C26.0092 25.3471 29.996 21.3453 29.996 17.6812C30.0524 16.2343 29.5146 14.8246 28.5001 13.7601C27.4856 12.6956 26.0768 12.0628 24.5815 12ZM21.5952 26.8274C21.1487 27.1912 20.5837 27.3906 20 27.3906C19.4163 27.3906 18.8513 27.1912 18.4048 26.8274C14.1249 23.3535 11.67 20.0205 11.67 17.6812C11.6131 16.6615 11.9752 15.6615 12.6774 14.8992C13.3796 14.1368 14.365 13.674 15.4185 13.6117C16.4721 13.674 17.4574 14.1368 18.1596 14.8992C18.8618 15.6615 19.2239 16.6615 19.167 17.6812C19.167 17.8949 19.2548 18.0999 19.411 18.251C19.5672 18.4021 19.7791 18.487 20 18.487C20.2209 18.487 20.4328 18.4021 20.589 18.251C20.7452 18.0999 20.833 17.8949 20.833 17.6812C20.7761 16.6615 21.1382 15.6615 21.8404 14.8992C22.5426 14.1368 23.5279 13.674 24.5815 13.6117C25.635 13.674 26.6204 14.1368 27.3226 14.8992C28.0248 15.6615 28.3869 16.6615 28.33 17.6812C28.33 20.0205 25.8751 23.3535 21.5952 26.8242V26.8274Z" fill="black"/>
</g>
</svg>
